# xmcd
#
# Track frame offsets:
#	150
#	13697
#	26453
#	39762
#	54371
#	67929
#	80564
#	96007
#	108530
#	123432
#	136500
#	149878
#	163342
#	176042
#	187363
#	201843
#	214683
#	228084
#
# Disc length: 3219 seconds
#
# Revision: 0
# Processed by: cddbd v1.5PL3 Copyright (c) Steve Scherf et al.
# Submitted via: dBpowerAMP V4.0
#
DISCID=fb0c9112
DTITLE=Tampa Red - The Essential Tampa Red [CD2]
DYEAR=1900
DGENRE=Blues
TTITLE0=Black Hearted Blues
TTITLE1=What's That Tastes Like Gravy
TTITLE2=Boot It Boy (with The Hokum Jug Band)
TTITLE3=Witchin' Hour Blues
TTITLE4=Deceitful Friend Blues
TTITLE5=Forgive Me Please
TTITLE6=Worried Devil Blues
TTITLE7=Dead Cat on the Line
TTITLE8=You Got to Reap What You Sow
TTITLE9=Grouchy Hearted Woman
TTITLE10=Hard Road Blues
TTITLE11=Moanin' Heart Blues
TTITLE12=She's Love Crazy
TTITLE13=It Hurts Me Too
TTITLE14=Someday I'm Bound To Win
TTITLE15=House Rent Scuffle (with Lil Johnson)
TTITLE16=Love With a Feeling
TTITLE17=Sweet Little Angel
EXTD=
EXTT0=
EXTT1=
EXTT2=
EXTT3=
EXTT4=
EXTT5=
EXTT6=
EXTT7=
EXTT8=
EXTT9=
EXTT10=
EXTT11=
EXTT12=
EXTT13=
EXTT14=
EXTT15=
EXTT16=
EXTT17=
PLAYORDER=
